{
  "accessors": [
    {
      "name": "Billboard1_1_0_positions",
      "componentType": 5126,
      "count": 1487,
      "min": [
        -192.05911254882812,
        -15,
        -390
      ],
      "max": [
        50,
        655,
        210
      ],
      "type": "VEC3",
      "bufferView": 0,
      "byteOffset": 0
    },
    {
      "name": "Billboard1_1_0_normals",
      "componentType": 5126,
      "count": 1487,
      "min": [
        -1,
        -1,
        -1
      ],
      "max": [
        1,
        1,
        1
      ],
      "type": "VEC3",
      "bufferView": 1,
      "byteOffset": 0
    },
    {
      "name": "Billboard1_1_0_texcoords",
      "componentType": 5126,
      "count": 1487,
      "min": [
        0.01822499930858612,
        0.01549100037664175
      ],
      "max": [
        0.9866139888763428,
        0.967619001865387
      ],
      "type": "VEC2",
      "bufferView": 2,
      "byteOffset": 0
    },
    {
      "name": "Billboard1_1_0_indices",
      "componentType": 5123,
      "count": 3318,
      "min": [
        0
      ],
      "max": [
        1486
      ],
      "type": "SCALAR",
      "bufferView": 3,
      "byteOffset": 0
    }
  ],
  "asset": {
    "generator": "obj2gltf",
    "version": "2.0"
  },
  "buffers": [
    {
      "uri": "Billboard_data.bin",
      "byteLength": 54220
    }
  ],
  "bufferViews": [
    {
      "name": "bufferView_0",
      "buffer": 0,
      "byteLength": 17844,
      "byteOffset": 0,
      "byteStride": 12,
      "target": 34962
    },
    {
      "name": "bufferView_1",
      "buffer": 0,
      "byteLength": 17844,
      "byteOffset": 17844,
      "byteStride": 12,
      "target": 34962
    },
    {
      "name": "bufferView_2",
      "buffer": 0,
      "byteLength": 11896,
      "byteOffset": 35688,
      "byteStride": 8,
      "target": 34962
    },
    {
      "name": "bufferView_3",
      "buffer": 0,
      "byteLength": 6636,
      "byteOffset": 47584,
      "target": 34963
    }
  ],
  "images": [
    {
      "name": "Billboard texture",
      "uri": "Billboard_img0.png"
    }
  ],
  "materials": [
    {
      "name": "lambert3SG",
      "pbrMetallicRoughness": {
        "baseColorTexture": {
          "index": 0
        },
        "baseColorFactor": [
          1,
          1,
          1,
          1
        ],
        "metallicFactor": 0,
        "roughnessFactor": 1
      },
      "emissiveFactor": [
        0,
        0,
        0
      ],
      "alphaMode": "OPAQUE",
      "doubleSided": false
    }
  ],
  "meshes": [
    {
      "name": "Billboard1_1",
      "primitives": [
        {
          "attributes": {
            "POSITION": 0,
            "NORMAL": 1,
            "TEXCOORD_0": 2
          },
          "indices": 3,
          "material": 0,
          "mode": 4
        }
      ]
    }
  ],
  "nodes": [
    {
      "name": "Billboard1",
      "mesh": 0
    }
  ],
  "samplers": [
    {
      "magFilter": 9729,
      "minFilter": 9986,
      "wrapS": 10497,
      "wrapT": 10497
    }
  ],
  "scene": 0,
  "scenes": [
    {
      "nodes": [
        0
      ]
    }
  ],
  "textures": [
    {
      "name": "Billboard texture",
      "sampler": 0,
      "source": 0
    }
  ]
}